<?xml version="1.0" encoding="utf-8"?>
<!-- Generator: Adobe Illustrator 23.1.0, SVG Export Plug-In . SVG Version: 6.00 Build 0)  -->
<svg version="1.1" id="图层_1" xmlns="http://www.w3.org/2000/svg" xmlns:xlink="http://www.w3.org/1999/xlink" x="0px" y="0px"
	 viewBox="0 0 500 500" style="enable-background:new 0 0 500 500;" xml:space="preserve">
<style type="text/css">
	.st0{fill:#CEBCB6;}
	.st1{fill:#FFFFFF;}
	.st2{fill:#FAE2DB;}
	.st3{fill:#FCEEEB;}
	.st4{fill:#F2D5CE;}
	.st5{fill:#795A8E;}
	.st6{fill:#F9706A;}
	.st7{fill:#F79797;}
</style>
<g>
	<path class="st0" d="M361.4,178.8c-5.5-17.8-5.7-37-0.9-56.8c4.4-18,11.7-30,12.2-30.8c12.2-18.9,6.8-44.2-12-56.7
		c-6.7-4.4-14.6-6.7-22.6-6.7c-8.5,0-16.8,2.6-23.6,7.4h-8.9h-93.8h-9.2c-6.8-4.8-14.9-7.4-23.6-7.4l0,0l0,0c-8,0-15.8,2.4-22.6,6.7
		c-18.8,12.3-24.2,37.7-12,56.7c0.5,0.9,7.8,13,12.2,30.8c5,19.8,4.7,38.8-0.9,56.8c-11.4,9.2-20.8,20.1-28.2,32.6
		c-12,20.1-18.1,43.6-18.1,69.7c0,29.1,9.4,49.1,19.4,70.3c10.4,22.2,23.4,49.9,32.7,104.4c3.4,19.9,20.4,34.3,40.6,34.3
		c2.2,0,4.3-0.2,6.4-0.5h0.2h0.2c6.2-1.1,11.8-3.5,16.7-6.8h15.8c5.3,2.4,11,3.7,17,3.7c5.9,0,11.7-1.3,17-3.7h15.8
		c4.9,3.4,10.5,5.7,16.7,6.8h0.2h0.2c2.2,0.3,4.3,0.5,6.4,0.5c20.1,0,37.2-14.4,40.6-34.3c9.3-54.6,22.3-82.2,32.7-104.4
		c10-21.2,19.4-41.2,19.4-70.3c0-26.1-6.1-49.4-18-69.5C382.3,199.1,372.8,188.1,361.4,178.8z"/>
	<path class="st1" d="M344.5,161c-5.5-17.8-5.7-37-0.9-56.8c4.4-18,11.7-30,12.2-30.8c12.2-18.9,6.8-44.2-12-56.7
		c-6.7-4.4-14.6-6.7-22.6-6.7c-8.5,0-16.8,2.6-23.6,7.4h-8.9h-93.8h-9.2c-6.8-4.8-14.9-7.4-23.6-7.4l0,0l0,0c-8,0-15.8,2.4-22.6,6.7
		c-18.9,12.4-24.2,37.7-12,56.7c0.5,0.9,7.8,13,12.2,30.8c5,19.8,4.7,38.8-0.9,56.8c-11.4,9.2-20.8,20.1-28.2,32.6
		c-12,20.1-18.1,43.6-18.1,69.8c0,29.1,9.4,49.1,19.4,70.3c10.4,22.2,23.4,49.9,32.7,104.4c3.4,19.9,20.4,34.3,40.6,34.3
		c2.2,0,4.3-0.2,6.4-0.5h0.2h0.2c6.2-1.1,11.8-3.5,16.7-6.8h15.8c5.3,2.4,11,3.7,17,3.7s11.7-1.3,17-3.7h15.8
		c4.9,3.4,10.5,5.7,16.7,6.8h0.2h0.2c2.2,0.3,4.3,0.5,6.4,0.5c20.1,0,37.2-14.4,40.6-34.3c9.3-54.6,22.3-82.2,32.7-104.4
		c10-21.2,19.4-41.2,19.4-70.3c0-26.1-6.1-49.4-18-69.5C365.4,181.2,355.9,170.3,344.5,161z"/>
	<g>
		<g>
			<path class="st2" d="M310.2,186.9c-30.8-72.4,11-135.8,11-135.8h-159c0,0,41.9,63.5,11,135.8c-19.7,12.5-39.4,35.3-39.4,76.3
				c0,44.7,33,59.4,51.5,167.8h112.7c18.4-108.4,51.5-123.1,51.5-167.8C349.6,222.3,329.9,199.5,310.2,186.9z M241.8,324
				c0-26.5-11.6-35.3-11.6-35.3c11.2-17.6,11.7-47.6,11.7-47.6c1.3,33.7,11.6,47.6,11.6,47.6C242.4,295.6,241.8,324,241.8,324z"/>
		</g>
		<g>
			<path class="st3" d="M134.2,259.5c0,1.3-0.1,2.5-0.1,3.8c0,44.7,33,59.4,51.5,167.8h12.8c0.1-52.5-37.7-147.5-37.7-147.5
				C142.2,272.9,134.7,260.5,134.2,259.5z"/>
		</g>
		<g>
			<path class="st4" d="M349.5,259.5c0,1.3,0.1,2.5,0.1,3.8c0,44.7-33,59.4-51.5,167.8h-12.9c-0.1-52.5,37.7-147.5,37.7-147.5
				C341.4,272.9,348.9,260.5,349.5,259.5z"/>
		</g>
		<g>
			<path class="st4" d="M321.3,51.1h-32.4c-7.6,21.4-20.1,68.4-8.4,123c0,0,14.8,3.4,29.7,12.8C279.5,114.5,321.3,51.1,321.3,51.1z"
				/>
		</g>
		<g>
			<path class="st3" d="M162.6,51.1h32.4c7.6,21.4,20.1,68.4,8.4,123c0,0-14.8,3.4-29.7,12.8C204.4,114.5,162.6,51.1,162.6,51.1z"/>
		</g>
		<g>
			<g>
				<g>
					<path class="st5" d="M185.4,438.4c-3.6,0-6.7-2.6-7.2-6.2c-10.1-59.2-24.7-90.3-35.4-113.1c-9-19.3-16.1-34.4-16.1-55.9
						c0-45.3,22.8-69.7,42.1-82.1c3.5-2.3,8-1.3,10.2,2.2c2.3,3.5,1.2,8-2.2,10.2c-23.5,15.3-35.4,38.6-35.4,69.7
						c0,18.3,6.2,31.4,14.7,49.6c11,23.6,26.2,55.8,36.6,116.9c0.6,4-2.1,7.8-6.1,8.5C186.3,438.4,185.9,438.4,185.4,438.4z"/>
				</g>
				<g>
					<path class="st5" d="M173.4,194.4c-1,0-1.9-0.2-2.9-0.5c-3.8-1.6-5.5-5.9-3.9-9.6c28.8-67.7-10.1-128.3-10.5-128.9
						c-2.3-3.4-1.3-8,2.2-10.2c3.5-2.3,8-1.3,10.2,2.1c1.8,2.7,43.6,67.6,11.7,142.8C178.9,192.7,176.2,194.4,173.4,194.4z"/>
				</g>
			</g>
			<g>
				<g>
					<path class="st5" d="M298.1,438.4c-0.4,0-0.9,0-1.2-0.1c-4-0.6-6.7-4.5-6.1-8.5c10.4-61.1,25.5-93.3,36.6-116.9
						c8.5-18.3,14.7-31.4,14.7-49.6c0-31.4-12.1-54.9-36.1-70.2c-3.5-2.2-4.4-6.7-2.3-10.2s6.7-4.4,10.2-2.3
						c19.6,12.4,42.9,36.8,42.9,82.6c0,21.5-7.1,36.7-16.1,55.9c-10.7,22.8-25.3,54-35.4,113.1C304.8,435.9,301.7,438.4,298.1,438.4
						z"/>
				</g>
				<g>
					<path class="st5" d="M310.2,194.4c-2.9,0-5.6-1.7-6.8-4.5c-31.9-75.2,10-140.1,11.7-142.8c2.3-3.4,6.8-4.3,10.2-2.1
						s4.3,6.8,2.2,10.2c-0.4,0.6-39.3,61.2-10.5,128.9c1.6,3.8-0.1,8.1-3.9,9.6C312.2,194.2,311.2,194.4,310.2,194.4z"/>
				</g>
			</g>
		</g>
		<g>
			<g>
				<g>
					<path class="st5" d="M241.8,434.7c-4.1,0-7.4-3.4-7.4-7.4v-99.6c0-25.3-8.2-33-8.2-33.1c-2.9-2.7-3.4-7.2-0.8-10.3
						c2.6-3,6.9-3.6,10.1-1.2c1.4,1.1,13.7,11.7,13.7,44.5v99.7C249.1,431.4,245.9,434.7,241.8,434.7z"/>
				</g>
				<g>
					<path class="st5" d="M241.8,434.7c-4.1,0-7.4-3.4-7.4-7.4v-99.6c0-32.8,12.3-43.4,13.7-44.5c3.2-2.5,7.9-1.9,10.4,1.3
						c2.5,3.1,1.9,7.7-1.1,10.2c-0.4,0.4-8.2,8.3-8.2,33v99.6C249.1,431.4,245.9,434.7,241.8,434.7z"/>
				</g>
			</g>
		</g>
		<g>
			<path class="st5" d="M240.7,155.3c-1.3,0-2.7-0.3-3.9-1.1c-3.5-2.2-4.5-6.7-2.4-10.2c0.9-1.4,1.5-3.6,1.4-4.2
				c-2.3-3.4-1.4-7.8,1.9-10.1c3.4-2.3,8-1.3,10.4,2.1c5.7,8.3-0.4,18.8-1.2,19.9C245.6,154,243.2,155.3,240.7,155.3z"/>
		</g>
		<g>
			<g>
				<path class="st6" d="M241,309.1L211,276.8c-24.3-26,7.9-56.1,32.2-30.1c26-24.3,56.1,7.9,30.1,32.2L241,309.1z"/>
			</g>
			<g>
				<path class="st7" d="M258.4,240.3c-3.9,1.5-7.8,3.9-11.7,7.5c-26.6-28.4-61.8,4.5-35.2,32.9l7.1,7.7
					c22.1-3.9,39.2-22.8,39.9-46.1C258.7,241.6,258.5,240.9,258.4,240.3z"/>
			</g>
			<g>
				<path class="st5" d="M242.3,315.4c-0.1,0-0.2,0-0.2,0c-1.9-0.1-3.8-0.9-5.2-2.4l-29.5-31.6c-15-16.1-12.2-34.5-1.7-44.3
					c9.4-8.8,25.1-10.9,39,0c8.5-5.8,18.1-7.6,26.8-5c9.4,2.8,16.5,10.5,18.7,20.1c2.5,10.9-1.6,22.4-11.4,31.5l-31.6,29.5
					C246,314.7,244.2,315.4,242.3,315.4z M224.5,244.5c-3.5,0-6.5,1.3-8.8,3.5c-5.2,4.9-6.4,14,2.5,23.5l24.4,26.2l26.2-24.4
					c9.5-8.9,8.9-18.1,4-23.3s-14-6.4-23.5,2.4c-2.9,2.8-7.7,2.6-10.4-0.3C234,246.6,228.9,244.5,224.5,244.5z"/>
			</g>
		</g>
	</g>
</g>
</svg>
