<?xml version="1.0" encoding="utf-8"?>
<!-- Generator: Adobe Illustrator 23.1.0, SVG Export Plug-In . SVG Version: 6.00 Build 0)  -->
<svg version="1.1" id="图层_1" xmlns="http://www.w3.org/2000/svg" xmlns:xlink="http://www.w3.org/1999/xlink" x="0px" y="0px"
	 viewBox="0 0 500 500" style="enable-background:new 0 0 500 500;" xml:space="preserve">
<style type="text/css">
	.st0{fill:#CEBCB6;}
	.st1{fill:#FFFFFF;}
	.st2{fill:#F9706A;}
	.st3{fill:#F79797;}
	.st4{fill:#795A8E;}
	.st5{fill:#A3CBE5;}
	.st6{fill:#C6E2FD;}
	.st7{fill:#FFC0C0;}
</style>
<g>
	<path class="st0" d="M445.8,124.5c-23.1-19.9-52.5-30.8-82.7-30.8c-5.4,0-10.8,0.3-16.2,1l-18.1-15.6c-7.2-6.2-16.5-9.6-26-9.6
		c-0.9,0-1.9,0-2.8,0.1h0h0c-10.2,0.8-19.6,5.3-26.5,12.9c-4-1.2-8.1-2-12.3-2.2l-1.1-0.1h-0.3c-0.4,0-0.8,0-1.2,0
		c-9.1-8.4-20.8-13.4-33.2-14.2l-1.1-0.1H224c-0.7,0-1.4,0-2.1,0c-1,0-1.9,0-2.9,0.1c-2.5-1.8-5-3.5-7.7-5
		c-10.8-6.1-23-9.3-35.4-9.3c-39.7,0-72,32.3-72,72c0,10.2,2.2,20.2,6.3,29.4c-1.8,5.4-2.7,11.2-2.7,17c0,0.5,0,1.1,0,1.6
		c-1.6,2.8-3,5.7-4.1,8.8c-19.9,2.2-35.3,19.1-35.3,39.6V244c-10.9,9.8-20.1,21.5-26.9,34.4c-9.8,18.3-14.9,39-14.9,59.9
		c0,70.2,57.1,127.4,127.4,127.4S281,408.5,281,338.3c0-7-0.6-14-1.7-20.9c0.1,0.1,0.2,0.2,0.4,0.3c23.1,19.8,52.5,30.8,82.9,30.8
		c37.2,0,72.5-16.1,96.7-44.3C505,250.9,499,170.3,445.8,124.5z M362.7,238.6c-3,0-7.3-0.7-11.4-4.2c-3.6-3.1-5.7-7.2-6.1-12
		c-0.4-4.7,1.1-9.1,4.2-12.7c3.1-3.6,7.2-5.7,12-6.1c0.5,0,1-0.1,1.4-0.1c4.2,0,8.1,1.5,11.3,4.2c7.3,6.3,8.2,17.4,1.9,24.7
		C372.7,236.4,367.8,238.6,362.7,238.6z M171.2,338.3c0,9.7-7.9,17.5-17.5,17.5c-9.7,0-17.5-7.9-17.5-17.5s7.9-17.5,17.5-17.5
		S171.2,328.6,171.2,338.3z"/>
	<path class="st1" d="M429.4,107.3c-23.1-19.9-52.5-30.8-82.7-30.8c-5.4,0-10.8,0.3-16.2,1l-18.1-15.6c-7.2-6.2-16.5-9.6-26-9.6
		c-0.9,0-1.9,0-2.8,0.1h0h0c-10.2,0.8-19.6,5.3-26.5,12.9c-4-1.2-8.1-2-12.3-2.2l-1.1-0.1h-0.3c-0.4,0-0.8,0-1.2,0
		c-9.1-8.4-20.8-13.4-33.2-14.2l-1.1-0.1h-0.3c-0.7,0-1.4,0-2.1,0c-1,0-1.9,0-2.9,0.1c-2.5-1.8-5-3.5-7.7-5
		c-10.8-6.1-23-9.3-35.4-9.3c-39.7,0-72,32.3-72,72c0,10.2,2.2,20.2,6.3,29.4c-1.8,5.4-2.7,11.2-2.7,17c0,0.5,0,1.1,0,1.6
		c-1.6,2.8-3,5.7-4.1,8.8c-19.9,2.2-35.3,19.1-35.3,39.6v23.9c-10.9,9.8-20,21.5-26.9,34.4C15.2,279.4,10,300.1,10,321
		c0,70.2,57.1,127.4,127.4,127.4S264.7,391.2,264.7,321c0-7-0.6-14-1.7-20.9c0.1,0.1,0.2,0.2,0.4,0.3c23.1,19.8,52.5,30.8,82.9,30.8
		c37.2,0,72.5-16.1,96.7-44.3C488.7,233.6,482.7,153.1,429.4,107.3z M346.3,221.4c-3,0-7.3-0.7-11.4-4.2c-3.6-3.1-5.7-7.2-6.1-12
		c-0.4-4.7,1.1-9.1,4.2-12.7c3.1-3.6,7.2-5.7,12-6.1c0.5,0,1-0.1,1.4-0.1c4.2,0,8.1,1.5,11.3,4.2c7.3,6.3,8.2,17.4,1.9,24.7
		C356.4,219.1,351.5,221.4,346.3,221.4z M154.9,321c0,9.7-7.9,17.5-17.5,17.5c-9.7,0-17.5-7.9-17.5-17.5s7.9-17.5,17.5-17.5
		C147,303.5,154.9,311.4,154.9,321z"/>
	<g>
		<g>
			<path class="st2" d="M183,246.5v-43.7H91.7v43.7c-25.1,15.4-41.9,43-41.9,74.6c0,48.3,39.2,87.5,87.5,87.5s87.5-39.2,87.5-87.5
				C224.9,289.4,208.1,261.8,183,246.5z M137.4,378.4c-31.7,0-57.4-25.7-57.4-57.4s25.7-57.4,57.4-57.4s57.4,25.7,57.4,57.4
				S169,378.4,137.4,378.4z"/>
		</g>
		<g>
			<path class="st3" d="M49.8,321c0,44.6,33.4,81.3,76.5,86.8c43.1-5.4,76.5-42.2,76.5-86.8c0-31.6-16.8-59.2-41.9-74.6v-43.7H91.7
				v43.7C66.6,261.8,49.8,289.4,49.8,321z M137.4,263.7c31.7,0,57.4,25.7,57.4,57.4s-25.7,57.4-57.4,57.4S80,352.7,80,321
				S105.7,263.7,137.4,263.7z"/>
		</g>
		<g>
			<circle class="st1" cx="137.4" cy="230.2" r="9.1"/>
		</g>
		<g>
			<path class="st4" d="M137.4,246.5c-9,0-16.3-7.3-16.3-16.3s7.3-16.3,16.3-16.3c9,0,16.3,7.3,16.3,16.3S146.3,246.5,137.4,246.5z
				 M137.4,228.2c-1.1,0-2,0.9-2,2c0,1.1,0.9,2,2,2c1.1,0,2-0.9,2-2C139.4,229.1,138.5,228.2,137.4,228.2z"/>
		</g>
		<g>
			<path class="st5" d="M319.6,120.6l-33.1-28.5L227,161.4l33.1,28.5c-4.7,29.1,5.3,59.8,29.2,80.4c36.6,31.5,91.9,27.4,123.4-9.3
				c31.5-36.6,27.4-91.9-9.3-123.4C379.5,116.9,347.6,111.6,319.6,120.6z M389.9,241.3c-20.7,24-56.9,26.7-80.9,6.1
				c-24-20.7-26.7-56.9-6.1-80.9c20.7-24,56.9-26.7,80.9-6.1C407.8,181,410.5,217.2,389.9,241.3z"/>
		</g>
		<g>
			<path class="st6" d="M289.3,270.2c33.8,29.1,83.4,27.7,115.7-1.4c24-36.2,17.9-85.5-15.9-114.6c-24-20.6-55.8-25.9-83.8-16.9
				l-33.1-28.5L227,161.4l33.1,28.5C255.4,218.9,265.4,249.6,289.3,270.2z M302.9,166.4c20.7-24,56.9-26.7,80.9-6.1
				c24,20.7,26.7,56.9,6.1,80.9c-20.7,24-56.9,26.7-80.9,6.1C285,226.7,282.2,190.5,302.9,166.4z"/>
		</g>
		<g>
			<path class="st4" d="M346.3,298.5c-21.9,0-43.8-7.5-61.7-22.8c-24.1-20.7-35.9-51.5-32.2-82.9l-30.1-25.9
				c-3-2.6-3.3-7.1-0.8-10.1l59.5-69.2c1.2-1.4,3-2.3,4.9-2.5c1.9-0.1,3.8,0.5,5.2,1.7l30.1,25.9c30.6-8.4,62.7-1.3,86.8,19.4
				c39.6,34,44.1,93.9,10,133.5C399.5,287.3,373,298.5,346.3,298.5z M237.1,160.6l27.7,23.8c1.9,1.6,2.8,4.1,2.4,6.6
				c-4.5,27.9,5.5,55.5,26.8,73.8c33.6,28.9,84.4,25.1,113.4-8.5c28.9-33.6,25.1-84.4-8.5-113.4c-21.3-18.3-50.1-24.1-77-15.5
				c-2.4,0.8-4.9,0.2-6.8-1.4l-27.7-23.8L237.1,160.6z M346.3,268.3c-14.9,0-29.9-5.1-42-15.6c-13.1-11.2-21-26.9-22.3-44.1
				c-1.3-17.2,4.2-33.8,15.4-46.9c11.2-13.1,26.9-21,44.1-22.3c17.1-1.3,33.8,4.2,46.9,15.4c27,23.2,30,64,6.9,91l0,0
				C382.6,260.7,364.5,268.3,346.3,268.3z M346.5,153.6c-1.3,0-2.6,0-3.9,0.1c-13.4,1-25.6,7.2-34.3,17.3c-8.7,10.2-13,23.1-12,36.5
				c1,13.4,7.2,25.6,17.3,34.3c21,18.1,52.8,15.7,70.8-5.3l0,0c18.1-21,15.7-52.8-5.3-70.8C369.9,157.9,358.5,153.6,346.5,153.6z
				 M389.9,241.3L389.9,241.3L389.9,241.3z"/>
		</g>
		<g>
			
				<ellipse transform="matrix(0.5208 -0.8537 0.8537 0.5208 9.5265 306.2072)" class="st1" cx="277.5" cy="144.6" rx="9.1" ry="9.1"/>
		</g>
		<g>
			<path class="st4" d="M277.5,160.9c-3.8,0-7.5-1.3-10.6-3.9c-6.8-5.8-7.6-16.1-1.7-22.9c5.9-6.8,16.2-7.6,22.9-1.7c0,0,0,0,0,0
				c6.8,5.9,7.6,16.2,1.7,22.9C286.6,159,282.1,160.9,277.5,160.9z M277.5,142.6c-0.6,0-1.1,0.2-1.5,0.7c-0.7,0.8-0.6,2.1,0.2,2.8
				c0.8,0.7,2.1,0.6,2.8-0.2c0.7-0.8,0.6-2.1-0.2-2.8C278.4,142.8,278,142.6,277.5,142.6z"/>
		</g>
		<g>
			<path class="st4" d="M159.6,145.6c-21.7,0-39.3-17.6-39.3-39.3s17.6-39.3,39.3-39.3s39.3,17.6,39.3,39.3S181.3,145.6,159.6,145.6
				z M159.6,81.4c-13.8,0-25,11.2-25,25s11.2,25,25,25c13.8,0,25-11.2,25-25S173.4,81.4,159.6,81.4z"/>
		</g>
		<g>
			<path class="st4" d="M145.4,174.2c-11.8,0-21.4-9.6-21.4-21.4c0-11.8,9.6-21.4,21.4-21.4s21.4,9.6,21.4,21.4
				S157.2,174.2,145.4,174.2z M145.4,145.6c-3.9,0-7.1,3.2-7.1,7.1c0,3.9,3.2,7.1,7.1,7.1c3.9,0,7.1-3.2,7.1-7.1
				C152.5,148.9,149.3,145.6,145.4,145.6z"/>
		</g>
		<g>
			<path class="st4" d="M138.2,202.8c-11.8,0-21.4-9.6-21.4-21.4c0-11.8,9.6-21.4,21.4-21.4s21.4,9.6,21.4,21.4
				C159.6,193.2,150,202.8,138.2,202.8z M138.2,174.2c-3.9,0-7.1,3.2-7.1,7.1c0,3.9,3.2,7.1,7.1,7.1c3.9,0,7.1-3.2,7.1-7.1
				C145.4,177.4,142.1,174.2,138.2,174.2z"/>
		</g>
		<g>
			<path class="st4" d="M205.6,124.2c-0.5,0-0.9,0-1.4,0c-5.7-0.4-10.9-2.9-14.7-7.2c-3.8-4.3-5.7-9.8-5.3-15.5
				c0.8-11.8,10.9-20.7,22.8-20h0c11.8,0.8,20.8,11,20,22.8C226.2,115.5,216.8,124.2,205.6,124.2z M205.6,95.6
				c-3.7,0-6.9,2.9-7.1,6.7c-0.2,3.9,2.7,7.3,6.7,7.6c3.9,0.2,7.3-2.7,7.6-6.7c0.2-3.9-2.7-7.3-6.7-7.6l0,0
				C205.9,95.7,205.7,95.6,205.6,95.6z"/>
		</g>
		<g>
			<path class="st4" d="M241.3,138.5c-0.5,0-0.9,0-1.4,0c-5.7-0.4-10.9-2.9-14.7-7.2c-3.8-4.3-5.7-9.8-5.3-15.5
				c0.4-5.7,2.9-10.9,7.2-14.7c4.3-3.8,9.8-5.6,15.5-5.3h0c11.8,0.8,20.8,11,20,22.8C261.9,129.8,252.5,138.5,241.3,138.5z
				 M241.3,109.9c-3.7,0-6.9,2.9-7.1,6.7c-0.2,3.9,2.7,7.3,6.7,7.6c3.9,0.2,7.3-2.7,7.6-6.7c0.2-3.9-2.7-7.3-6.7-7.6l0,0
				C241.6,109.9,241.4,109.9,241.3,109.9z"/>
		</g>
		<g>
			<path class="st7" d="M62.7,366.6c4-9.2,6.4-21.3,6.4-34.6c0-19.1-5-35.7-12.4-44.8c-4.4,10.4-6.8,21.8-6.8,33.8
				C49.8,337.7,54.5,353.3,62.7,366.6z"/>
		</g>
		<g>
			<path class="st4" d="M137.4,415.7c-52.2,0-94.7-42.5-94.7-94.7c0-31.8,15.6-60.8,41.9-78.5v-39.8c0-3.9,3.2-7.1,7.1-7.1H183
				c3.9,0,7.1,3.2,7.1,7.1v39.8c26.3,17.7,41.9,46.7,41.9,78.5C232,373.2,189.6,415.7,137.4,415.7z M98.8,209.9v36.5
				c0,2.5-1.3,4.8-3.4,6.1C71.3,267.3,57,292.9,57,321c0,44.3,36.1,80.4,80.4,80.4s80.4-36.1,80.4-80.4c0-28.1-14.4-53.7-38.5-68.5
				c-2.1-1.3-3.4-3.6-3.4-6.1v-36.5L98.8,209.9L98.8,209.9z M137.4,385.5c-35.6,0-64.5-28.9-64.5-64.5s28.9-64.5,64.5-64.5
				s64.5,28.9,64.5,64.5S172.9,385.5,137.4,385.5z M137.4,270.8c-27.7,0-50.2,22.5-50.2,50.2s22.5,50.2,50.2,50.2
				s50.2-22.5,50.2-50.2C187.6,293.3,165.1,270.8,137.4,270.8z"/>
		</g>
	</g>
</g>
</svg>
