<?xml version="1.0" encoding="utf-8"?>
<!-- Generator: Adobe Illustrator 23.1.0, SVG Export Plug-In . SVG Version: 6.00 Build 0)  -->
<svg version="1.1" id="图层_1" xmlns="http://www.w3.org/2000/svg" xmlns:xlink="http://www.w3.org/1999/xlink" x="0px"
     y="0px"
     viewBox="0 0 500 500" style="enable-background:new 0 0 500 500;" xml:space="preserve">
<style type="text/css">
	.st0{fill:#CEBCB6;}
	.st1{fill:#FFFFFF;}
	.st2{fill:#CEB6B2;}
	.st3{fill:#E5C7C1;}
	.st4{fill:#795A8E;}
	.st5{fill:#FAEFDD;}
	.st6{fill:#FAE2DB;}
	.st7{fill:#F482A5;}
	.st8{fill:#FCA9C7;}
	.st9{fill:#FCC8DD;}
</style>
    <g>
	<path class="st0" d="M122.6,469c18.2,13.7,39.4,21,61.2,21c21.4,0,43.2-7.1,62.9-20.4c3.4-2.3,6.7-4.8,9.8-7.4
		c2.9,0.3,5.7,0.4,8.6,0.4c30.9,0,59.4-15,80.3-42.1c15.7-20.5,21.7-46.5,17.4-75.1c-2.4-15.7-7.4-29.9-13.2-41.9
		c16.2-22.4,52.4-76,67-115.2c3.4-3.6,6.6-7.5,9.6-11.6c21.3-29.3,31.8-80.4,12.3-115c-5.9-10.4-14.3-19-24.3-24.7
		c-9.9-5.7-21.1-8.6-33.1-8.6c-2,0-4.1,0.1-6.1,0.3l-0.2,0l-0.2,0c-2.1,0.2-4.2,0.5-6.3,1l-0.1,0l-0.1,0
		c-7.6,1.9-34.6,9.1-60.6,22.3c-16.8,8.5-30.4,18.2-40.4,28.6c-19.8,20.8-22.8,41.9-21.8,55.9c0.3,3.6,0.8,7.2,1.5,10.7
		c-6,8.8-13.6,18.9-22.2,28.5c-14,15.7-27.7,26.8-40.9,33.2c-46.4,22.6-71.4,39.7-85.5,58.6c-9.8,11.6-17.6,26-23.1,42.8
		C56.9,366.6,77.2,434.8,122.6,469z"/>
        <path class="st1" d="M105.3,450.7c18.2,13.7,39.4,21,61.2,21c21.4,0,43.2-7.1,62.9-20.4c3.4-2.3,6.7-4.8,9.8-7.4
		c2.9,0.3,5.7,0.4,8.6,0.4c30.9,0,59.4-15,80.3-42.1c15.7-20.5,21.7-46.5,17.4-75.1c-2.4-15.7-7.4-29.9-13.2-41.9
		c16.2-22.4,52.4-76,67-115.2c3.4-3.6,6.6-7.5,9.6-11.6c21.3-29.3,31.8-80.4,12.3-115c-5.9-10.4-14.3-19-24.3-24.7
		c-9.9-5.7-21.1-8.6-33.1-8.6c-2,0-4.1,0.1-6.1,0.3l-0.2,0l-0.2,0c-2.1,0.2-4.2,0.5-6.3,1l-0.1,0l-0.1,0
		c-7.6,1.9-34.6,9.1-60.6,22.3c-16.8,8.5-30.4,18.2-40.4,28.6c-19.8,20.8-22.8,41.9-21.8,55.9c0.3,3.6,0.8,7.2,1.5,10.7
		c-6,8.8-13.6,18.9-22.2,28.5c-14,15.7-27.7,26.8-40.9,33.2c-46.4,22.6-71.4,39.7-85.5,58.6c-9.8,11.6-17.6,26-23.1,42.8
		C39.6,348.3,59.9,416.5,105.3,450.7z"/>
        <g>
		<g>
			<path class="st2" d="M199.2,251.8c22.4-10,48.8-4.2,66.7,12.6c25.9,24.1,53.7,78.9,28.4,111.9c-48.1,62.7-127.1-1.8-126.7-67.8
				C167.9,275.5,182.4,259.4,199.2,251.8z"/>
		</g>
            <g>
			<path class="st3" d="M188.3,258.5c-11.7,9.2-20.5,24.5-20.6,50c-0.3,49.5,44,98.1,86.4,92.9c4.9-3.7,9.7-8.5,14.2-14.3
				c25.3-33-2.6-87.8-28.4-111.9C225.8,262.2,206.7,255.9,188.3,258.5z"/>
		</g>
            <g>
			<path class="st4" d="M247.7,409.4c-7,0-14.1-1.2-21.3-3.7c-37.5-12.8-66.6-55.6-66.4-97.3c0.2-39.3,19.7-56.2,36-63.6l0,0
				c24.6-11.1,54.1-5.6,75,13.9c30.1,28,57,86,29.3,122.1C286.1,399.6,267.6,409.4,247.7,409.4z M202.3,258.8
				c-17.8,8-26.9,24.7-27,49.8c-0.2,35,25,72.1,56.1,82.8c15.1,5.2,37.3,6,57-19.7c22.6-29.5-5.5-81.1-27.6-101.7
				C244.5,254.9,221,250.4,202.3,258.8L202.3,258.8z"/>
		</g>
            <g>
			<path class="st5" d="M362.7,135.2c-5-19.4-21.6-39-21.6-39l-53.9,19.1c0,0-41,83.7-101.9,113.4c-44.9,21.9-63,35.7-70.9,46.9
				c-6.3,7.1-11.8,16.8-16,29.6c-22.1,67.4,37.1,158.5,107.3,110.9c32.9-22.3,33.1-56.3,24-86.2c25.1-21.5,50.2-46.7,62.9-63.1
				C318.1,233.4,367.7,154.5,362.7,135.2z"/>
		</g>
            <g>
			<path class="st6" d="M362.7,135.2c-2-7.6-5.7-15.2-9.5-21.6l-48.8,17.3c0,0-41,83.7-101.9,113.4c-44.9,21.9-63,35.7-70.9,46.9
				c-6.3,7.1-11.8,16.8-16,29.6c-11.1,33.9-1.7,73.7,19.4,99c19.5,12.6,44.3,14.2,70.6-3.6c32.9-22.3,33.1-56.3,24-86.2
				c25.1-21.5,50.2-46.7,62.9-63.1C318.1,233.4,367.7,154.5,362.7,135.2z"/>
		</g>
            <g>
			<path class="st3" d="M329.7,150.2l-9.9,9.9c0,0-21.2,61.3-109.8,138c6.8,7.9,14.5,18.8,19.4,32c10.1-7.3,25.9-20.9,49.1-46.3
				c47.5-51.8,94.9-145,94.9-159.7S329.7,150.2,329.7,150.2z"/>
		</g>
            <g>
			<path class="st4" d="M166.4,436.9c-14.1,0-27.9-4.7-40.2-14c-33.5-25.2-48.9-78-35.2-120c4.2-12.9,10-23.6,17.3-31.9
				c10.2-14.2,32.2-28.9,73.5-49c57.8-28.2,98.1-109.1,98.5-109.9c1.9-3.8,6.4-5.3,10.2-3.5s5.3,6.4,3.5,10.2
				c-1.7,3.5-42.9,86.4-105.4,116.9c-38.1,18.6-59.7,32.7-68,44.5c-0.2,0.2-0.3,0.4-0.5,0.7c-6,6.8-10.9,15.9-14.5,26.9
				c-11.7,35.7,1.7,81.9,29.9,103.2c19.7,14.9,43.1,14.5,66-0.9c22.2-15.1,30-37,23.7-67c-1.3-6.1-4-12.2-8-18.1
				c-1.2-1.8-3-4.5-5-7.5c-3.3-5-8.2-12.5-9.8-14.3c-2.8-3.2-2.4-8,0.7-10.7c3.2-2.8,8-2.4,10.7,0.7c2.1,2.4,5.9,8.2,11.1,16
				c1.9,2.9,3.6,5.5,4.8,7.2c5.2,7.5,8.7,15.5,10.3,23.6c7.4,35.7-3,64.3-30.1,82.7C195.6,432,180.8,436.9,166.4,436.9z"/>
		</g>
            <g>
			<path class="st4" d="M230.2,337.5c-2.1,0-4.3-0.9-5.8-2.7c-2.7-3.2-2.4-8,0.8-10.7c24.7-21.1,49.5-46,61.8-62
				c31.7-41.2,72.3-111.9,68.9-125.1c-1.1-4.1,1.4-8.2,5.5-9.3c4-1.1,8.2,1.4,9.3,5.5c6.7,25.7-53.9,115.1-71.6,138.2
				c-13,16.9-38.1,42.2-63.9,64.3C233.7,336.9,231.9,337.5,230.2,337.5z"/>
		</g>
            <g>
			<path class="st7"
                  d="M361.1,52.5c0,0-93.5,23.3-90.7,62.7c2.8,39.3,66.9,69.3,104.1,18.1C394.1,106.4,397.8,49.5,361.1,52.5z"/>
		</g>
            <g>
			<path class="st8" d="M270.4,115.2c1,13.5,9.2,26,21.1,34.4c19.4,3,41.2-3.8,57.7-26.4c13.7-18.9,19.6-52.5,9.2-69.8
				C343,57.5,267.9,79.8,270.4,115.2z"/>
		</g>
            <g>
			<path class="st9" d="M287.1,92.9c0.5,6.7,4.2,13,9.8,17.5c1.1,0.9,2.5,1.5,4,1.6c10.1,0.8,21-3.2,29.4-14.8
				c7.5-10.4,10.7-28.8,5.1-38.3C327,61.2,285.8,73.5,287.1,92.9z"/>
		</g>
            <g>
			<path class="st4" d="M325.5,168.1c-6,0-12-0.8-18.1-2.6c-24.7-7.1-43-27.5-44.6-49.8c-3.2-44.4,86.3-68,96.5-70.6
				c0.4-0.1,0.8-0.2,1.2-0.2c13.3-1.1,24.1,4.4,30.3,15.4c11.9,21.1,4.2,57.8-10.1,77.4C366.4,157.4,346.6,168.1,325.5,168.1z
				 M362.3,60.1C339.2,66,276.1,88,278,114.6c1.1,16,15,30.9,33.6,36.2c10.1,2.9,36,6.6,56.8-22c12.6-17.3,17.1-47,9.2-61.1
				C374.3,62.1,369.5,59.6,362.3,60.1z"/>
		</g>
            <g>
			<path class="st4" d="M325.5,168.1c-6,0-12-0.8-18.1-2.6c-24.7-7.1-43-27.5-44.6-49.8c-3.2-44.4,86.3-68,96.5-70.6
				c0.4-0.1,0.8-0.2,1.2-0.2c13.3-1.1,24.1,4.4,30.3,15.4c11.9,21.1,4.2,57.8-10.1,77.4C366.4,157.4,346.6,168.1,325.5,168.1z
				 M362.3,60.1C339.2,66,276.1,88,278,114.6c1.1,16,15,30.9,33.6,36.2c10.1,2.9,36,6.6,56.8-22c12.6-17.3,17.1-47,9.2-61.1
				C374.3,62.1,369.5,59.6,362.3,60.1z"/>
		</g>
	</g>
</g>
</svg>
